<svg xmlns="http://www.w3.org/2000/svg" width="18" height="18" viewBox="0 0 18 18">
  <path id="icons8-twitter" d="M19,3H5A2,2,0,0,0,3,5V19a2,2,0,0,0,2,2H19a2,2,0,0,0,2-2V5A2,2,0,0,0,19,3ZM17.05,9.514v.343a6.986,6.986,0,0,1-7.029,7.029A7.2,7.2,0,0,1,6.25,15.772h.6a5.544,5.544,0,0,0,3.086-1.029,2.5,2.5,0,0,1-2.314-1.714,3.745,3.745,0,0,1,.429.086,1.883,1.883,0,0,0,.686-.086,2.477,2.477,0,0,1-1.971-2.4,4.277,4.277,0,0,0,1.114.343A2.808,2.808,0,0,1,6.766,8.829a1.968,1.968,0,0,1,.343-1.2A6.957,6.957,0,0,0,12.166,10.2c0-.171-.086-.343-.086-.6a2.488,2.488,0,0,1,2.486-2.486,2.335,2.335,0,0,1,1.8.771,4.161,4.161,0,0,0,1.543-.6,2.506,2.506,0,0,1-1.114,1.371,4.689,4.689,0,0,0,1.457-.429A5.788,5.788,0,0,1,17.05,9.514Z" transform="translate(-3 -3)" fill="#fff"/>
</svg>
